<?xml version="1.0" encoding="UTF-8"?>
<svg xmlns="http://www.w3.org/2000/svg" width="1200" height="690" viewBox="0 0 1200 690">
<rect width="100%" height="100%" fill="#ffffff"/>
<style>
text { font-family: "DejaVu Sans", Arial, sans-serif; fill: #202124; }
.title { font-size: 24px; font-weight: 700; }
.subtitle { font-size: 14px; fill: #4d5156; }
.axis-label { font-size: 15px; font-weight: 600; }
.tick { font-size: 12px; fill: #5f6368; }
.note { font-size: 13px; fill: #3c4043; }
.small { font-size: 11px; fill: #5f6368; }
.panel-title { font-size: 16px; font-weight: 700; }
.label { font-size: 13px; font-weight: 600; }
</style>
<text class="title" x="40" y="42">HIGGS accuracy vs. wall throughput on XDNA2</text>
<text class="subtitle" x="40" y="66">Measured points use the CPU-head throughput rows from Table 4 and the retained accuracy rows from Table 3.</text>
<text class="subtitle" x="40" y="86">All three retained operating points now have measured hardware throughput.</text>
<line x1="92.00" y1="132" x2="92.00" y2="556" stroke="#eceff1" stroke-width="1"/>
<text class="tick" x="92.00" y="580" text-anchor="middle">1.3</text>
<line x1="201.23" y1="132" x2="201.23" y2="556" stroke="#eceff1" stroke-width="1"/>
<text class="tick" x="201.23" y="580" text-anchor="middle">1.5</text>
<line x1="310.46" y1="132" x2="310.46" y2="556" stroke="#eceff1" stroke-width="1"/>
<text class="tick" x="310.46" y="580" text-anchor="middle">1.7</text>
<line x1="419.69" y1="132" x2="419.69" y2="556" stroke="#eceff1" stroke-width="1"/>
<text class="tick" x="419.69" y="580" text-anchor="middle">1.9</text>
<line x1="528.92" y1="132" x2="528.92" y2="556" stroke="#eceff1" stroke-width="1"/>
<text class="tick" x="528.92" y="580" text-anchor="middle">2.1</text>
<line x1="638.15" y1="132" x2="638.15" y2="556" stroke="#eceff1" stroke-width="1"/>
<text class="tick" x="638.15" y="580" text-anchor="middle">2.3</text>
<line x1="747.38" y1="132" x2="747.38" y2="556" stroke="#eceff1" stroke-width="1"/>
<text class="tick" x="747.38" y="580" text-anchor="middle">2.5</text>
<line x1="92" y1="556.00" x2="802" y2="556.00" stroke="#eceff1" stroke-width="1"/>
<text class="tick" x="80" y="560.00" text-anchor="end">75.5%</text>
<line x1="92" y1="485.33" x2="802" y2="485.33" stroke="#eceff1" stroke-width="1"/>
<text class="tick" x="80" y="489.33" text-anchor="end">76.0%</text>
<line x1="92" y1="414.67" x2="802" y2="414.67" stroke="#eceff1" stroke-width="1"/>
<text class="tick" x="80" y="418.67" text-anchor="end">76.5%</text>
<line x1="92" y1="344.00" x2="802" y2="344.00" stroke="#eceff1" stroke-width="1"/>
<text class="tick" x="80" y="348.00" text-anchor="end">77.0%</text>
<line x1="92" y1="273.33" x2="802" y2="273.33" stroke="#eceff1" stroke-width="1"/>
<text class="tick" x="80" y="277.33" text-anchor="end">77.5%</text>
<line x1="92" y1="202.67" x2="802" y2="202.67" stroke="#eceff1" stroke-width="1"/>
<text class="tick" x="80" y="206.67" text-anchor="end">78.0%</text>
<line x1="92" y1="132.00" x2="802" y2="132.00" stroke="#eceff1" stroke-width="1"/>
<text class="tick" x="80" y="136.00" text-anchor="end">78.5%</text>
<line x1="92" y1="132" x2="92" y2="556" stroke="#5f6368" stroke-width="1.5"/>
<line x1="92" y1="556" x2="802" y2="556" stroke="#5f6368" stroke-width="1.5"/>
<polyline fill="none" stroke="#5f6368" stroke-width="2.5" points="217.62,205.49 665.46,346.83 681.85,500.88" opacity="0.7"/>
<circle cx="217.62" cy="205.49" r="7.5" fill="#d95f02" stroke="#ffffff" stroke-width="2"/>
<rect x="227.62" y="151.49" width="206" height="60" rx="8" fill="#ffffff" fill-opacity="0.9"/>
<text class="label" x="237.62" y="171.49">H=64, L=32</text>
<text class="note" x="237.62" y="189.49">1.53M/s, 77.98% acc</text>
<text class="small" x="237.62" y="205.49">Best accuracy · ROC AUC 0.8653</text>
<circle cx="665.46" cy="346.83" r="7.5" fill="#2ca02c" stroke="#ffffff" stroke-width="2"/>
<rect x="675.46" y="292.83" width="206" height="60" rx="8" fill="#ffffff" fill-opacity="0.9"/>
<text class="label" x="685.46" y="312.83">H=32, L=32</text>
<text class="note" x="685.46" y="330.83">2.35M/s, 76.98% acc</text>
<text class="small" x="685.46" y="346.83">Best full-data manual · ROC AUC 0.8542</text>
<circle cx="681.85" cy="500.88" r="7.5" fill="#1f77b4" stroke="#ffffff" stroke-width="2"/>
<rect x="521.85" y="498.88" width="184" height="60" rx="8" fill="#ffffff" fill-opacity="0.9"/>
<text class="label" x="531.85" y="518.88">H=32, L=8</text>
<text class="note" x="531.85" y="536.88">2.38M/s, 75.89% acc</text>
<text class="small" x="531.85" y="552.88">Best throughput · ROC AUC 0.8430</text>
<text class="axis-label" x="447.00" y="644" text-anchor="middle">
Wall throughput (million samples / s)
</text>
<text class="axis-label" x="28" y="344.00" transform="rotate(-90 28 344.00)" text-anchor="middle">Test accuracy</text>
<rect x="842" y="132" width="324" height="286" rx="14" fill="#f8f9fa" stroke="#dadce0"/>
<text class="panel-title" x="860" y="162">Retained operating points</text>
<circle cx="860" cy="191" r="5.5" fill="#1f77b4" stroke="#ffffff" stroke-width="1.5"/>
<text class="note" x="876" y="196">H=32, L=8 (throughput point)</text>
<text class="small" x="876" y="218">75.89% acc · 2.38M/s wall</text>
<text class="small" x="876" y="234">ROC AUC 0.8430</text>
<circle cx="860" cy="259" r="5.5" fill="#2ca02c" stroke="#ffffff" stroke-width="1.5"/>
<text class="note" x="876" y="264">H=32, L=32 (best full-data manual)</text>
<text class="small" x="876" y="286">76.98% acc · 2.35M/s wall</text>
<text class="small" x="876" y="302">ROC AUC 0.8542</text>
<circle cx="860" cy="327" r="5.5" fill="#d95f02" stroke="#ffffff" stroke-width="1.5"/>
<text class="note" x="876" y="332">H=64, L=32 tuned (best accuracy)</text>
<text class="small" x="876" y="354">77.98% acc · 1.53M/s wall</text>
<text class="small" x="876" y="370">ROC AUC 0.8653</text>
</svg>
